<svg width="16" height="16" viewBox="0 0 16 16" fill="none" xmlns="http://www.w3.org/2000/svg">
<path d="M2.66666 7.99992C2.66666 5.0544 5.05447 2.66659 7.99999 2.66659C10.9455 2.66659 13.3333 5.0544 13.3333 7.99992C13.3333 10.9455 10.9455 13.3333 7.99999 13.3333C5.05447 13.3333 2.66666 10.9455 2.66666 7.99992ZM7.99999 1.33325C4.31809 1.33325 1.33333 4.31802 1.33333 7.99992C1.33333 11.6818 4.31809 14.6666 7.99999 14.6666C11.6819 14.6666 14.6667 11.6818 14.6667 7.99992C14.6667 4.31802 11.6819 1.33325 7.99999 1.33325ZM11.6381 6.30466L10.6953 5.36184L7.33333 8.72378L5.4714 6.86185L4.52859 7.80465L7.33333 10.6094L11.6381 6.30466Z" fill="#94A3B8"/>
</svg>
