<svg width="59" height="59" viewBox="0 0 59 59" fill="none" xmlns="http://www.w3.org/2000/svg">
<mask id="path-1-inside-1_11428_17582" fill="white">
<path d="M0 9.99999C0 4.47714 4.47715 0 10 0H48.2155C53.7384 0 58.2155 4.47715 58.2155 10V48.2155C58.2155 53.7384 53.7384 58.2155 48.2155 58.2155H9.99999C4.47714 58.2155 0 53.7384 0 48.2155V9.99999Z"/>
</mask>
<path d="M0 9.99999C0 4.47714 4.47715 0 10 0H48.2155C53.7384 0 58.2155 4.47715 58.2155 10V48.2155C58.2155 53.7384 53.7384 58.2155 48.2155 58.2155H9.99999C4.47714 58.2155 0 53.7384 0 48.2155V9.99999Z" fill="#CC9900" fill-opacity="0.1"/>
<path d="M10 0V1.10776H48.2155V0V-1.10776H10V0ZM58.2155 10H57.1078V48.2155H58.2155H59.3233V10H58.2155ZM48.2155 58.2155V57.1078H9.99999V58.2155V59.3233H48.2155V58.2155ZM0 48.2155H1.10776V9.99999H0H-1.10776V48.2155H0ZM9.99999 58.2155V57.1078C5.08894 57.1078 1.10776 53.1266 1.10776 48.2155H0H-1.10776C-1.10776 54.3502 3.86534 59.3233 9.99999 59.3233V58.2155ZM58.2155 48.2155H57.1078C57.1078 53.1266 53.1266 57.1078 48.2155 57.1078V58.2155V59.3233C54.3502 59.3233 59.3233 54.3502 59.3233 48.2155H58.2155ZM48.2155 0V1.10776C53.1266 1.10776 57.1078 5.08895 57.1078 10H58.2155H59.3233C59.3233 3.86535 54.3502 -1.10776 48.2155 -1.10776V0ZM10 0V-1.10776C3.86535 -1.10776 -1.10776 3.86534 -1.10776 9.99999H0H1.10776C1.10776 5.08894 5.08895 1.10776 10 1.10776V0Z" fill="#CC9900" fill-opacity="0.2" mask="url(#path-1-inside-1_11428_17582)"/>
<path d="M20.1074 31.1078H23.1074C23.6379 31.1078 24.1466 31.3185 24.5216 31.6935C24.8967 32.0686 25.1074 32.5773 25.1074 33.1078V36.1078C25.1074 36.6382 24.8967 37.1469 24.5216 37.522C24.1466 37.897 23.6379 38.1078 23.1074 38.1078H22.1074C21.577 38.1078 21.0683 37.897 20.6932 37.522C20.3181 37.1469 20.1074 36.6382 20.1074 36.1078V29.1078C20.1074 26.7208 21.0556 24.4316 22.7435 22.7438C24.4313 21.056 26.7205 20.1078 29.1074 20.1078C31.4944 20.1078 33.7836 21.056 35.4714 22.7438C37.1592 24.4316 38.1074 26.7208 38.1074 29.1078V36.1078C38.1074 36.6382 37.8967 37.1469 37.5216 37.522C37.1466 37.897 36.6379 38.1078 36.1074 38.1078H35.1074C34.577 38.1078 34.0683 37.897 33.6932 37.522C33.3181 37.1469 33.1074 36.6382 33.1074 36.1078V33.1078C33.1074 32.5773 33.3181 32.0686 33.6932 31.6935C34.0683 31.3185 34.577 31.1078 35.1074 31.1078H38.1074" stroke="#CC9900" stroke-width="2" stroke-linecap="round" stroke-linejoin="round"/>
</svg>
