<svg width="42" height="42" viewBox="0 0 42 42" fill="none" xmlns="http://www.w3.org/2000/svg">
<rect width="42" height="42" rx="21" fill="#CC9900" fill-opacity="0.1"/>
<rect x="0.5" y="0.5" width="41" height="41" rx="20.5" stroke="#1E63F0" stroke-opacity="0.3"/>
<g clip-path="url(#clip0_11258_8755)">
<path d="M14.3747 21.232C14.3191 21.0823 14.3191 20.9176 14.3747 20.768C14.9158 19.4559 15.8344 18.334 17.0139 17.5446C18.1934 16.7551 19.5807 16.3337 21 16.3337C22.4193 16.3337 23.8067 16.7551 24.9862 17.5446C26.1657 18.334 27.0842 19.4559 27.6253 20.768C27.6809 20.9176 27.6809 21.0823 27.6253 21.232C27.0842 22.5441 26.1657 23.6659 24.9862 24.4554C23.8067 25.2448 22.4193 25.6662 21 25.6662C19.5807 25.6662 18.1934 25.2448 17.0139 24.4554C15.8344 23.6659 14.9158 22.5441 14.3747 21.232Z" stroke="#CC9900" stroke-width="1.33333" stroke-linecap="round" stroke-linejoin="round"/>
<path d="M21 23C22.1046 23 23 22.1046 23 21C23 19.8954 22.1046 19 21 19C19.8954 19 19 19.8954 19 21C19 22.1046 19.8954 23 21 23Z" stroke="#CC9900" stroke-width="1.33333" stroke-linecap="round" stroke-linejoin="round"/>
</g>
<defs>
<clipPath id="clip0_11258_8755">
<rect width="16" height="16" fill="white" transform="translate(13 13)"/>
</clipPath>
</defs>
</svg>
