<svg width="59" height="59" viewBox="0 0 59 59" fill="none" xmlns="http://www.w3.org/2000/svg">
<mask id="path-1-inside-1_11428_17571" fill="white">
<path d="M0 9.99999C0 4.47714 4.47715 0 10 0H48.2155C53.7384 0 58.2155 4.47715 58.2155 10V48.2155C58.2155 53.7384 53.7384 58.2155 48.2155 58.2155H9.99999C4.47714 58.2155 0 53.7384 0 48.2155V9.99999Z"/>
</mask>
<path d="M0 9.99999C0 4.47714 4.47715 0 10 0H48.2155C53.7384 0 58.2155 4.47715 58.2155 10V48.2155C58.2155 53.7384 53.7384 58.2155 48.2155 58.2155H9.99999C4.47714 58.2155 0 53.7384 0 48.2155V9.99999Z" fill="#CC9900" fill-opacity="0.1"/>
<path d="M10 0V1.10776H48.2155V0V-1.10776H10V0ZM58.2155 10H57.1078V48.2155H58.2155H59.3233V10H58.2155ZM48.2155 58.2155V57.1078H9.99999V58.2155V59.3233H48.2155V58.2155ZM0 48.2155H1.10776V9.99999H0H-1.10776V48.2155H0ZM9.99999 58.2155V57.1078C5.08894 57.1078 1.10776 53.1266 1.10776 48.2155H0H-1.10776C-1.10776 54.3502 3.86534 59.3233 9.99999 59.3233V58.2155ZM58.2155 48.2155H57.1078C57.1078 53.1266 53.1266 57.1078 48.2155 57.1078V58.2155V59.3233C54.3502 59.3233 59.3233 54.3502 59.3233 48.2155H58.2155ZM48.2155 0V1.10776C53.1266 1.10776 57.1078 5.08895 57.1078 10H58.2155H59.3233C59.3233 3.86535 54.3502 -1.10776 48.2155 -1.10776V0ZM10 0V-1.10776C3.86535 -1.10776 -1.10776 3.86534 -1.10776 9.99999H0H1.10776C1.10776 5.08894 5.08895 1.10776 10 1.10776V0Z" fill="#CC9900" fill-opacity="0.2" mask="url(#path-1-inside-1_11428_17571)"/>
<path d="M38.9085 27.1077C39.3652 29.349 39.0397 31.6791 37.9864 33.7095C36.933 35.7399 35.2154 37.3477 33.12 38.265C31.0247 39.1823 28.6781 39.3535 26.4718 38.7501C24.2655 38.1466 22.3327 36.8051 20.9958 34.9491C19.6589 33.0931 18.9986 30.8349 19.1252 28.5511C19.2517 26.2672 20.1574 24.0958 21.6912 22.3989C23.2249 20.7019 25.2941 19.5821 27.5536 19.2261C29.8131 18.8702 32.1263 19.2996 34.1075 20.4427" stroke="#CC9900" stroke-width="2" stroke-linecap="round" stroke-linejoin="round"/>
<path d="M26.1074 28.1077L29.1074 31.1077L39.1074 21.1077" stroke="#CC9900" stroke-width="2" stroke-linecap="round" stroke-linejoin="round"/>
</svg>
