<svg width="59" height="59" viewBox="0 0 59 59" fill="none" xmlns="http://www.w3.org/2000/svg">
<mask id="path-1-inside-1_11428_17559" fill="white">
<path d="M0 9.99999C0 4.47714 4.47715 0 10 0H48.2155C53.7384 0 58.2155 4.47715 58.2155 10V48.2155C58.2155 53.7384 53.7384 58.2155 48.2155 58.2155H9.99999C4.47714 58.2155 0 53.7384 0 48.2155V9.99999Z"/>
</mask>
<path d="M0 9.99999C0 4.47714 4.47715 0 10 0H48.2155C53.7384 0 58.2155 4.47715 58.2155 10V48.2155C58.2155 53.7384 53.7384 58.2155 48.2155 58.2155H9.99999C4.47714 58.2155 0 53.7384 0 48.2155V9.99999Z" fill="#CC9900" fill-opacity="0.1"/>
<path d="M10 0V1.10776H48.2155V0V-1.10776H10V0ZM58.2155 10H57.1078V48.2155H58.2155H59.3233V10H58.2155ZM48.2155 58.2155V57.1078H9.99999V58.2155V59.3233H48.2155V58.2155ZM0 48.2155H1.10776V9.99999H0H-1.10776V48.2155H0ZM9.99999 58.2155V57.1078C5.08894 57.1078 1.10776 53.1266 1.10776 48.2155H0H-1.10776C-1.10776 54.3502 3.86534 59.3233 9.99999 59.3233V58.2155ZM58.2155 48.2155H57.1078C57.1078 53.1266 53.1266 57.1078 48.2155 57.1078V58.2155V59.3233C54.3502 59.3233 59.3233 54.3502 59.3233 48.2155H58.2155ZM48.2155 0V1.10776C53.1266 1.10776 57.1078 5.08895 57.1078 10H58.2155H59.3233C59.3233 3.86535 54.3502 -1.10776 48.2155 -1.10776V0ZM10 0V-1.10776C3.86535 -1.10776 -1.10776 3.86534 -1.10776 9.99999H0H1.10776C1.10776 5.08894 5.08895 1.10776 10 1.10776V0Z" fill="#CC9900" fill-opacity="0.2" mask="url(#path-1-inside-1_11428_17559)"/>
<path d="M32.5847 29.9977L34.0997 38.5237C34.1166 38.6241 34.1025 38.7273 34.0593 38.8194C34.016 38.9116 33.9457 38.9884 33.8576 39.0395C33.7695 39.0906 33.668 39.1136 33.5665 39.1054C33.465 39.0972 33.3684 39.0582 33.2897 38.9937L29.7097 36.3067C29.5368 36.1776 29.3269 36.1078 29.1112 36.1078C28.8954 36.1078 28.6855 36.1776 28.5127 36.3067L24.9267 38.9927C24.848 39.0571 24.7515 39.096 24.6502 39.1042C24.5488 39.1124 24.4473 39.0895 24.3593 39.0385C24.2713 38.9876 24.2009 38.911 24.1576 38.819C24.1142 38.727 24.0999 38.624 24.1167 38.5237L25.6307 29.9977" stroke="#CC9900" stroke-width="2" stroke-linecap="round" stroke-linejoin="round"/>
<path d="M29.1079 31.1077C32.4216 31.1077 35.1079 28.4214 35.1079 25.1077C35.1079 21.7939 32.4216 19.1077 29.1079 19.1077C25.7942 19.1077 23.1079 21.7939 23.1079 25.1077C23.1079 28.4214 25.7942 31.1077 29.1079 31.1077Z" stroke="#CC9900" stroke-width="2" stroke-linecap="round" stroke-linejoin="round"/>
</svg>
