<svg width="42" height="42" viewBox="0 0 42 42" fill="none" xmlns="http://www.w3.org/2000/svg">
<rect width="42" height="42" rx="21" fill="#CC9900" fill-opacity="0.1"/>
<rect x="0.5" y="0.5" width="41" height="41" rx="20.5" stroke="#1E63F0" stroke-opacity="0.3"/>
<path d="M25.6667 20.3333H16.3333C15.597 20.3333 15 20.9303 15 21.6666V26.3333C15 27.0697 15.597 27.6666 16.3333 27.6666H25.6667C26.403 27.6666 27 27.0697 27 26.3333V21.6666C27 20.9303 26.403 20.3333 25.6667 20.3333Z" stroke="#CC9900" stroke-width="1.33333" stroke-linecap="round" stroke-linejoin="round"/>
<path d="M17.667 20.3333V17.6667C17.667 16.7826 18.0182 15.9348 18.6433 15.3097C19.2684 14.6845 20.1163 14.3333 21.0003 14.3333C21.8844 14.3333 22.7322 14.6845 23.3573 15.3097C23.9825 15.9348 24.3337 16.7826 24.3337 17.6667V20.3333" stroke="#CC9900" stroke-width="1.33333" stroke-linecap="round" stroke-linejoin="round"/>
</svg>
