<svg width="59" height="59" viewBox="0 0 59 59" fill="none" xmlns="http://www.w3.org/2000/svg">
<mask id="path-1-inside-1_11428_17548" fill="white">
<path d="M0 9.99999C0 4.47714 4.47715 0 10 0H48.2155C53.7384 0 58.2155 4.47715 58.2155 10V48.2155C58.2155 53.7384 53.7384 58.2155 48.2155 58.2155H9.99999C4.47714 58.2155 0 53.7384 0 48.2155V9.99999Z"/>
</mask>
<path d="M0 9.99999C0 4.47714 4.47715 0 10 0H48.2155C53.7384 0 58.2155 4.47715 58.2155 10V48.2155C58.2155 53.7384 53.7384 58.2155 48.2155 58.2155H9.99999C4.47714 58.2155 0 53.7384 0 48.2155V9.99999Z" fill="#CC9900" fill-opacity="0.1"/>
<path d="M10 0V1.10776H48.2155V0V-1.10776H10V0ZM58.2155 10H57.1078V48.2155H58.2155H59.3233V10H58.2155ZM48.2155 58.2155V57.1078H9.99999V58.2155V59.3233H48.2155V58.2155ZM0 48.2155H1.10776V9.99999H0H-1.10776V48.2155H0ZM9.99999 58.2155V57.1078C5.08894 57.1078 1.10776 53.1266 1.10776 48.2155H0H-1.10776C-1.10776 54.3502 3.86534 59.3233 9.99999 59.3233V58.2155ZM58.2155 48.2155H57.1078C57.1078 53.1266 53.1266 57.1078 48.2155 57.1078V58.2155V59.3233C54.3502 59.3233 59.3233 54.3502 59.3233 48.2155H58.2155ZM48.2155 0V1.10776C53.1266 1.10776 57.1078 5.08895 57.1078 10H58.2155H59.3233C59.3233 3.86535 54.3502 -1.10776 48.2155 -1.10776V0ZM10 0V-1.10776C3.86535 -1.10776 -1.10776 3.86534 -1.10776 9.99999H0H1.10776C1.10776 5.08894 5.08895 1.10776 10 1.10776V0Z" fill="#CC9900" fill-opacity="0.2" mask="url(#path-1-inside-1_11428_17548)"/>
<path d="M29.1074 39.1078C34.6303 39.1078 39.1074 34.6307 39.1074 29.1078C39.1074 23.585 34.6303 19.1078 29.1074 19.1078C23.5846 19.1078 19.1074 23.585 19.1074 29.1078C19.1074 34.6307 23.5846 39.1078 29.1074 39.1078Z" stroke="#CC9900" stroke-width="2" stroke-linecap="round" stroke-linejoin="round"/>
<path d="M29.1074 19.1078C26.5397 21.804 25.1074 25.3845 25.1074 29.1078C25.1074 32.8311 26.5397 36.4116 29.1074 39.1078C31.6752 36.4116 33.1074 32.8311 33.1074 29.1078C33.1074 25.3845 31.6752 21.804 29.1074 19.1078Z" stroke="#CC9900" stroke-width="2" stroke-linecap="round" stroke-linejoin="round"/>
<path d="M19.1074 29.1078H39.1074" stroke="#CC9900" stroke-width="2" stroke-linecap="round" stroke-linejoin="round"/>
</svg>
