<svg width="109" height="40" viewBox="0 0 109 40" fill="none" xmlns="http://www.w3.org/2000/svg">
<path d="M23.7333 29.5999L21.3333 18.6666L26 13.9999C28 11.9999 28.6667 9.33327 28 7.99994C26.6667 7.33327 24 7.99994 22 9.99994L17.3333 14.6666L6.4 12.2666C5.73333 12.1333 5.2 12.3999 4.93333 12.9333L4.53333 13.5999C4.26667 14.2666 4.4 14.9333 4.93333 15.3333L12 19.9999L9.33333 23.9999H5.33333L4 25.3333L8 27.9999L10.6667 31.9999L12 30.6666V26.6666L16 23.9999L20.6667 31.0666C21.0667 31.5999 21.7333 31.7333 22.4 31.4666L23.0667 31.1999C23.6 30.7999 23.8667 30.2666 23.7333 29.5999Z" stroke="#CC9900" stroke-width="2.66667" stroke-linecap="round" stroke-linejoin="round"/>
<rect width="47.9973" height="0.986602" transform="translate(48 19.5067)" fill="#CC9900"/>
</svg>
