<svg width="16" height="16" viewBox="0 0 16 16" fill="none" xmlns="http://www.w3.org/2000/svg">
<g clip-path="url(#clip0_13099_3488)">
<path d="M7.68059 1.5294C7.70979 1.4704 7.7549 1.42073 7.81083 1.38601C7.86676 1.35129 7.93129 1.33289 7.99712 1.33289C8.06295 1.33289 8.12748 1.35129 8.18341 1.38601C8.23934 1.42073 8.28445 1.4704 8.31366 1.5294L9.85301 4.64743C9.95442 4.85266 10.1041 5.03021 10.2892 5.16485C10.4744 5.29949 10.6894 5.3872 10.9159 5.42044L14.3585 5.92424C14.4237 5.93369 14.485 5.9612 14.5354 6.00367C14.5858 6.04614 14.6233 6.10186 14.6437 6.16454C14.6641 6.22722 14.6665 6.29435 14.6507 6.35835C14.635 6.42234 14.6016 6.48064 14.5544 6.52665L12.0648 8.95097C11.9006 9.11098 11.7777 9.30848 11.7068 9.52649C11.6359 9.74449 11.619 9.97647 11.6576 10.2025L12.2454 13.6277C12.2569 13.6929 12.2498 13.76 12.225 13.8214C12.2002 13.8828 12.1587 13.936 12.1051 13.9749C12.0515 14.0138 11.9881 14.0369 11.9221 14.0415C11.856 14.046 11.79 14.032 11.7316 14.0009L8.65418 12.3829C8.45141 12.2764 8.22581 12.2208 7.99679 12.2208C7.76776 12.2208 7.54217 12.2764 7.33939 12.3829L4.26268 14.0009C4.20426 14.0318 4.13833 14.0457 4.07239 14.041C4.00645 14.0363 3.94316 14.0132 3.8897 13.9744C3.83624 13.9355 3.79476 13.8824 3.76999 13.8211C3.74521 13.7598 3.73813 13.6928 3.74956 13.6277L4.33665 10.2031C4.37543 9.97704 4.35863 9.74491 4.28769 9.52677C4.21676 9.30862 4.09382 9.11101 3.92948 8.95097L1.43985 6.52732C1.39227 6.48136 1.35855 6.42296 1.34253 6.35877C1.32652 6.29458 1.32886 6.22719 1.34928 6.16426C1.3697 6.10134 1.40738 6.04541 1.45803 6.00286C1.50868 5.9603 1.57027 5.93283 1.63577 5.92357L5.07767 5.42044C5.30441 5.38746 5.51975 5.29987 5.70513 5.16521C5.89052 5.03055 6.04041 4.85286 6.14189 4.64743L7.68059 1.5294Z" fill="#F59E0B" stroke="#F59E0B" stroke-width="1.33278" stroke-linecap="round" stroke-linejoin="round"/>
</g>
<defs>
<clipPath id="clip0_13099_3488">
<rect width="15.9933" height="15.9933" fill="white"/>
</clipPath>
</defs>
</svg>
