<svg width="36" height="36" viewBox="0 0 36 36" fill="none" xmlns="http://www.w3.org/2000/svg">
<path d="M29.9871 19.4918C29.9871 26.9887 24.7393 30.7372 18.5019 32.9113C18.1752 33.0219 17.8205 33.0166 17.4973 32.8963C11.2449 30.7372 5.99707 26.9887 5.99707 19.4918V8.99622C5.99707 8.59856 6.15504 8.21719 6.43623 7.936C6.71741 7.65482 7.09879 7.49685 7.49645 7.49685C10.4952 7.49685 14.2436 5.6976 16.8525 3.41855C17.1702 3.14716 17.5743 2.99805 17.9921 2.99805C18.4099 2.99805 18.8139 3.14716 19.1316 3.41855C21.7555 5.71259 25.4889 7.49685 28.4877 7.49685C28.8854 7.49685 29.2667 7.65482 29.5479 7.936C29.8291 8.21719 29.9871 8.59856 29.9871 8.99622V19.4918Z" stroke="#CC9900" stroke-width="2.99875" stroke-linecap="round" stroke-linejoin="round"/>
</svg>
