<svg width="20" height="20" viewBox="0 0 20 20" fill="none" xmlns="http://www.w3.org/2000/svg">
<path d="M10.666 16.3334C10.8773 16.4919 11.1232 16.5979 11.3834 16.6426C11.6437 16.6874 11.9109 16.6697 12.163 16.591C12.415 16.5122 12.6448 16.3747 12.8333 16.1897C13.0218 16.0048 13.1636 15.7777 13.2472 15.5271C13.3307 15.2766 13.3534 15.0098 13.3136 14.7488C13.2738 14.4877 13.1725 14.2398 13.0181 14.0256C12.8637 13.8113 12.6606 13.6369 12.4255 13.5165C12.1904 13.3962 11.9301 13.3334 11.666 13.3334H1.66602" stroke="#CC9900" stroke-width="1.66667" stroke-linecap="round" stroke-linejoin="round"/>
<path d="M14.5827 6.66659C14.7958 6.38249 15.0779 6.15758 15.4024 6.0132C15.7268 5.86883 16.0828 5.80978 16.4364 5.84167C16.7901 5.87356 17.1298 5.99533 17.4232 6.19542C17.7166 6.3955 17.9539 6.66726 18.1127 6.98489C18.2716 7.30252 18.3465 7.65547 18.3306 8.01023C18.3146 8.36499 18.2082 8.70978 18.0215 9.01186C17.8348 9.31394 17.574 9.56328 17.2639 9.73621C16.9537 9.90914 16.6045 9.99992 16.2493 9.99992H1.66602" stroke="#CC9900" stroke-width="1.66667" stroke-linecap="round" stroke-linejoin="round"/>
<path d="M8.16602 3.66677C8.37728 3.50832 8.62318 3.40234 8.88345 3.35756C9.14371 3.31279 9.41089 3.3305 9.66296 3.40925C9.91504 3.48799 10.1448 3.6255 10.3333 3.81046C10.5218 3.99542 10.6636 4.22252 10.7472 4.47306C10.8307 4.72359 10.8534 4.99038 10.8136 5.25145C10.7738 5.51252 10.6725 5.76038 10.5181 5.97462C10.3637 6.18886 10.1606 6.36333 9.92548 6.48367C9.69041 6.60401 9.4301 6.66677 9.16601 6.66677H1.66602" stroke="#CC9900" stroke-width="1.66667" stroke-linecap="round" stroke-linejoin="round"/>
</svg>
