<svg width="20" height="20" viewBox="0 0 20 20" fill="none" xmlns="http://www.w3.org/2000/svg">
<path d="M15.8327 14.1666H17.4993C17.9993 14.1666 18.3327 13.8333 18.3327 13.3333V10.8333C18.3327 10.0833 17.7493 9.41659 17.0827 9.24992C15.5827 8.83325 13.3327 8.33325 13.3327 8.33325C13.3327 8.33325 12.2493 7.16659 11.4993 6.41659C11.0827 6.08325 10.5827 5.83325 9.99935 5.83325H4.16602C3.66602 5.83325 3.24935 6.16659 2.99935 6.58325L1.83268 8.99992C1.72233 9.32177 1.66602 9.65967 1.66602 9.99992V13.3333C1.66602 13.8333 1.99935 14.1666 2.49935 14.1666H4.16602" stroke="#CC9900" stroke-width="1.66667" stroke-linecap="round" stroke-linejoin="round"/>
<path d="M5.83366 15.8334C6.75413 15.8334 7.50033 15.0872 7.50033 14.1667C7.50033 13.2463 6.75413 12.5001 5.83366 12.5001C4.91318 12.5001 4.16699 13.2463 4.16699 14.1667C4.16699 15.0872 4.91318 15.8334 5.83366 15.8334Z" stroke="#CC9900" stroke-width="1.66667" stroke-linecap="round" stroke-linejoin="round"/>
<path d="M7.5 14.1667H12.5" stroke="#CC9900" stroke-width="1.66667" stroke-linecap="round" stroke-linejoin="round"/>
<path d="M14.1667 15.8334C15.0871 15.8334 15.8333 15.0872 15.8333 14.1667C15.8333 13.2463 15.0871 12.5001 14.1667 12.5001C13.2462 12.5001 12.5 13.2463 12.5 14.1667C12.5 15.0872 13.2462 15.8334 14.1667 15.8334Z" stroke="#CC9900" stroke-width="1.66667" stroke-linecap="round" stroke-linejoin="round"/>
</svg>
