<svg width="20" height="20" viewBox="0 0 20 20" fill="none" xmlns="http://www.w3.org/2000/svg">
<path d="M1.66602 5.00008C2.16602 5.41675 2.66602 5.83341 3.74935 5.83341C5.83268 5.83341 5.83268 4.16675 7.91602 4.16675C10.0827 4.16675 9.91602 5.83341 12.0827 5.83341C14.166 5.83341 14.166 4.16675 16.2493 4.16675C17.3327 4.16675 17.8327 4.58341 18.3327 5.00008" stroke="#CC9900" stroke-width="1.66667" stroke-linecap="round" stroke-linejoin="round"/>
<path d="M1.66602 9.99996C2.16602 10.4166 2.66602 10.8333 3.74935 10.8333C5.83268 10.8333 5.83268 9.16663 7.91602 9.16663C10.0827 9.16663 9.91602 10.8333 12.0827 10.8333C14.166 10.8333 14.166 9.16663 16.2493 9.16663C17.3327 9.16663 17.8327 9.58329 18.3327 9.99996" stroke="#CC9900" stroke-width="1.66667" stroke-linecap="round" stroke-linejoin="round"/>
<path d="M1.66602 15.0001C2.16602 15.4167 2.66602 15.8334 3.74935 15.8334C5.83268 15.8334 5.83268 14.1667 7.91602 14.1667C10.0827 14.1667 9.91602 15.8334 12.0827 15.8334C14.166 15.8334 14.166 14.1667 16.2493 14.1667C17.3327 14.1667 17.8327 14.5834 18.3327 15.0001" stroke="#CC9900" stroke-width="1.66667" stroke-linecap="round" stroke-linejoin="round"/>
</svg>
