<svg width="20" height="20" viewBox="0 0 20 20" fill="none" xmlns="http://www.w3.org/2000/svg">
<g clip-path="url(#clip0_11268_7990)">
<path d="M13.3327 17.5001V15.8334C13.3327 14.9493 12.9815 14.1015 12.3564 13.4764C11.7313 12.8513 10.8834 12.5001 9.99935 12.5001H4.99935C4.11529 12.5001 3.26745 12.8513 2.64233 13.4764C2.01721 14.1015 1.66602 14.9493 1.66602 15.8334V17.5001" stroke="#CC9900" stroke-width="1.66667" stroke-linecap="round" stroke-linejoin="round"/>
<path d="M7.50033 9.16672C9.34127 9.16672 10.8337 7.67433 10.8337 5.83338C10.8337 3.99243 9.34127 2.50005 7.50033 2.50005C5.65938 2.50005 4.16699 3.99243 4.16699 5.83338C4.16699 7.67433 5.65938 9.16672 7.50033 9.16672Z" stroke="#CC9900" stroke-width="1.66667" stroke-linecap="round" stroke-linejoin="round"/>
<path d="M18.333 17.4999V15.8333C18.3325 15.0947 18.0866 14.3772 17.6341 13.7935C17.1817 13.2098 16.5481 12.7929 15.833 12.6083" stroke="#CC9900" stroke-width="1.66667" stroke-linecap="round" stroke-linejoin="round"/>
<path d="M13.333 2.60825C14.05 2.79183 14.6855 3.20883 15.1394 3.79351C15.5932 4.37818 15.8395 5.09727 15.8395 5.83742C15.8395 6.57756 15.5932 7.29665 15.1394 7.88132C14.6855 8.466 14.05 8.883 13.333 9.06658" stroke="#CC9900" stroke-width="1.66667" stroke-linecap="round" stroke-linejoin="round"/>
</g>
<defs>
<clipPath id="clip0_11268_7990">
<rect width="20" height="20" fill="white"/>
</clipPath>
</defs>
</svg>
