<svg width="36" height="36" viewBox="0 0 36 36" fill="none" xmlns="http://www.w3.org/2000/svg">
<path d="M23.9901 29.9875V5.99753C23.9901 5.20221 23.6742 4.43947 23.1118 3.87709C22.5494 3.31472 21.7867 2.99878 20.9914 2.99878H14.9939C14.1985 2.99878 13.4358 3.31472 12.8734 3.87709C12.3111 4.43947 11.9951 5.20221 11.9951 5.99753V29.9875" stroke="#CC9900" stroke-width="2.99875" stroke-linecap="round" stroke-linejoin="round"/>
<path d="M29.9878 8.99634H5.99777C4.34161 8.99634 2.99902 10.3389 2.99902 11.9951V26.9888C2.99902 28.645 4.34161 29.9876 5.99777 29.9876H29.9878C31.6439 29.9876 32.9865 28.645 32.9865 26.9888V11.9951C32.9865 10.3389 31.6439 8.99634 29.9878 8.99634Z" stroke="#CC9900" stroke-width="2.99875" stroke-linecap="round" stroke-linejoin="round"/>
</svg>
