<svg width="20" height="20" viewBox="0 0 20 20" fill="none" xmlns="http://www.w3.org/2000/svg">
<path d="M12.6667 2.49805C13.1063 2.50431 13.5256 2.68402 13.8333 2.99805L17 6.16471C17.314 6.47243 17.4937 6.89176 17.5 7.33138V15.8314C17.5 16.2734 17.3244 16.6973 17.0118 17.0099C16.6993 17.3225 16.2754 17.498 15.8333 17.498H4.16667C3.72464 17.498 3.30072 17.3225 2.98816 17.0099C2.67559 16.6973 2.5 16.2734 2.5 15.8314V4.16471C2.5 3.72269 2.67559 3.29876 2.98816 2.9862C3.30072 2.67364 3.72464 2.49805 4.16667 2.49805H12.6667Z" stroke="white" stroke-width="1.66667" stroke-linecap="round" stroke-linejoin="round"/>
<path d="M14.1654 17.4987V11.6654C14.1654 11.4444 14.0776 11.2324 13.9213 11.0761C13.765 10.9198 13.553 10.832 13.332 10.832H6.66536C6.44435 10.832 6.23239 10.9198 6.07611 11.0761C5.91983 11.2324 5.83203 11.4444 5.83203 11.6654V17.4987" stroke="white" stroke-width="1.66667" stroke-linecap="round" stroke-linejoin="round"/>
<path d="M5.83203 2.49805V5.83138C5.83203 6.05239 5.91983 6.26436 6.07611 6.42064C6.23239 6.57692 6.44435 6.66471 6.66536 6.66471H12.4987" stroke="white" stroke-width="1.66667" stroke-linecap="round" stroke-linejoin="round"/>
</svg>
