<svg width="16" height="16" viewBox="0 0 16 16" fill="none" xmlns="http://www.w3.org/2000/svg">
<path d="M13.3337 6.66671C13.3337 9.99537 9.64099 13.462 8.40099 14.5327C8.28547 14.6196 8.14486 14.6665 8.00033 14.6665C7.85579 14.6665 7.71518 14.6196 7.59966 14.5327C6.35966 13.462 2.66699 9.99537 2.66699 6.66671C2.66699 5.25222 3.2289 3.89567 4.22909 2.89547C5.22928 1.89528 6.58584 1.33337 8.00033 1.33337C9.41481 1.33337 10.7714 1.89528 11.7716 2.89547C12.7718 3.89567 13.3337 5.25222 13.3337 6.66671Z" stroke="#CC9900" stroke-width="1.33333" stroke-linecap="round" stroke-linejoin="round"/>
<path d="M7.99902 8.66687C9.10359 8.66687 9.99902 7.77144 9.99902 6.66687C9.99902 5.5623 9.10359 4.66687 7.99902 4.66687C6.89445 4.66687 5.99902 5.5623 5.99902 6.66687C5.99902 7.77144 6.89445 8.66687 7.99902 8.66687Z" stroke="#CC9900" stroke-width="1.33333" stroke-linecap="round" stroke-linejoin="round"/>
</svg>
