<svg width="20" height="20" viewBox="0 0 20 20" fill="none" xmlns="http://www.w3.org/2000/svg">
<path d="M16.6663 10.8332C16.6663 14.9999 13.7497 17.0832 10.283 18.2916C10.1015 18.3531 9.90429 18.3501 9.72467 18.2832C6.24967 17.0832 3.33301 14.9999 3.33301 10.8332V4.99991C3.33301 4.77889 3.42081 4.56693 3.57709 4.41065C3.73337 4.25437 3.94533 4.16657 4.16634 4.16657C5.83301 4.16657 7.91634 3.16657 9.36634 1.89991C9.54289 1.74907 9.76747 1.6662 9.99967 1.6662C10.2319 1.6662 10.4565 1.74907 10.633 1.89991C12.0913 3.17491 14.1663 4.16657 15.833 4.16657C16.054 4.16657 16.266 4.25437 16.4223 4.41065C16.5785 4.56693 16.6663 4.77889 16.6663 4.99991V10.8332Z" stroke="#CC9900" stroke-width="1.66667" stroke-linecap="round" stroke-linejoin="round"/>
</svg>
