<svg width="24" height="24" viewBox="0 0 24 24" fill="none" xmlns="http://www.w3.org/2000/svg">
<path d="M15 21V13C15 12.7348 14.8946 12.4804 14.7071 12.2929C14.5196 12.1054 14.2652 12 14 12H10C9.73478 12 9.48043 12.1054 9.29289 12.2929C9.10536 12.4804 9 12.7348 9 13V21" stroke="#CC9900" stroke-width="2" stroke-linecap="round" stroke-linejoin="round"/>
<path d="M3 10.0001C2.99993 9.70916 3.06333 9.42171 3.18579 9.15781C3.30824 8.8939 3.4868 8.65989 3.709 8.47209L10.709 2.47309C11.07 2.168 11.5274 2.00061 12 2.00061C12.4726 2.00061 12.93 2.168 13.291 2.47309L20.291 8.47209C20.5132 8.65989 20.6918 8.8939 20.8142 9.15781C20.9367 9.42171 21.0001 9.70916 21 10.0001V19.0001C21 19.5305 20.7893 20.0392 20.4142 20.4143C20.0391 20.7894 19.5304 21.0001 19 21.0001H5C4.46957 21.0001 3.96086 20.7894 3.58579 20.4143C3.21071 20.0392 3 19.5305 3 19.0001V10.0001Z" stroke="#CC9900" stroke-width="2" stroke-linecap="round" stroke-linejoin="round"/>
</svg>
