<svg width="24" height="24" viewBox="0 0 24 24" fill="none" xmlns="http://www.w3.org/2000/svg">
<path d="M19 6.99902V3.99902C19 3.73381 18.8946 3.47945 18.7071 3.29192C18.5196 3.10438 18.2652 2.99902 18 2.99902H5C4.46957 2.99902 3.96086 3.20974 3.58579 3.58481C3.21071 3.95988 3 4.46859 3 4.99902C3 5.52946 3.21071 6.03816 3.58579 6.41324C3.96086 6.78831 4.46957 6.99902 5 6.99902H20C20.2652 6.99902 20.5196 7.10438 20.7071 7.29192C20.8946 7.47945 21 7.73381 21 7.99902V11.999M21 11.999H18C17.4696 11.999 16.9609 12.2097 16.5858 12.5848C16.2107 12.9599 16 13.4686 16 13.999C16 14.5295 16.2107 15.0382 16.5858 15.4132C16.9609 15.7883 17.4696 15.999 18 15.999H21C21.2652 15.999 21.5196 15.8937 21.7071 15.7061C21.8946 15.5186 22 15.2642 22 14.999V12.999C22 12.7338 21.8946 12.4795 21.7071 12.2919C21.5196 12.1044 21.2652 11.999 21 11.999Z" stroke="#CC9900" stroke-width="2.00083" stroke-linecap="round" stroke-linejoin="round"/>
<path d="M3 5V19C3 19.5304 3.21071 20.0391 3.58579 20.4142C3.96086 20.7893 4.46957 21 5 21H20C20.2652 21 20.5196 20.8946 20.7071 20.7071C20.8946 20.5196 21 20.2652 21 20V16" stroke="#CC9900" stroke-width="2.00083" stroke-linecap="round" stroke-linejoin="round"/>
</svg>
