<svg width="36" height="36" viewBox="0 0 36 36" fill="none" xmlns="http://www.w3.org/2000/svg">
<path d="M23.9903 31.487V28.4882C23.9903 26.8976 23.3584 25.3721 22.2337 24.2474C21.1089 23.1226 19.5834 22.4907 17.9928 22.4907H8.99652C7.40589 22.4907 5.8804 23.1226 4.75565 24.2474C3.6309 25.3721 2.99902 26.8976 2.99902 28.4882V31.487" stroke="#CC9900" stroke-width="2.99875" stroke-linecap="round" stroke-linejoin="round"/>
<path d="M13.4946 16.493C16.8069 16.493 19.4921 13.8079 19.4921 10.4955C19.4921 7.18322 16.8069 4.49805 13.4946 4.49805C10.1822 4.49805 7.49707 7.18322 7.49707 10.4955C7.49707 13.8079 10.1822 16.493 13.4946 16.493Z" stroke="#CC9900" stroke-width="2.99875" stroke-linecap="round" stroke-linejoin="round"/>
<path d="M23.9902 16.4931L26.989 19.4919L32.9865 13.4944" stroke="#CC9900" stroke-width="2.99875" stroke-linecap="round" stroke-linejoin="round"/>
</svg>
