<svg width="24" height="24" viewBox="0 0 24 24" fill="none" xmlns="http://www.w3.org/2000/svg">
<path d="M16 20V4C16 3.46957 15.7893 2.96086 15.4142 2.58579C15.0391 2.21071 14.5304 2 14 2H10C9.46957 2 8.96086 2.21071 8.58579 2.58579C8.21071 2.96086 8 3.46957 8 4V20" stroke="#CC9900" stroke-width="2" stroke-linecap="round" stroke-linejoin="round"/>
<path d="M20 6.00012H4C2.89543 6.00012 2 6.89555 2 8.00012V18.0001C2 19.1047 2.89543 20.0001 4 20.0001H20C21.1046 20.0001 22 19.1047 22 18.0001V8.00012C22 6.89555 21.1046 6.00012 20 6.00012Z" stroke="#CC9900" stroke-width="2" stroke-linecap="round" stroke-linejoin="round"/>
</svg>
