<svg width="14" height="14" viewBox="0 0 14 14" fill="none" xmlns="http://www.w3.org/2000/svg">
<path d="M6.71561 1.33737C6.74115 1.28578 6.7806 1.24235 6.82951 1.21198C6.87842 1.18162 6.93484 1.16553 6.99241 1.16553C7.04998 1.16553 7.1064 1.18162 7.15531 1.21198C7.20422 1.24235 7.24367 1.28578 7.26921 1.33737L8.61531 4.06396C8.70399 4.24343 8.83489 4.39869 8.99678 4.51643C9.15867 4.63416 9.34671 4.71086 9.54477 4.73993L12.5551 5.18047C12.6122 5.18874 12.6658 5.2128 12.7099 5.24993C12.7539 5.28707 12.7867 5.3358 12.8046 5.39061C12.8224 5.44542 12.8245 5.50413 12.8107 5.56009C12.7969 5.61604 12.7677 5.66703 12.7265 5.70726L10.5494 7.82723C10.4058 7.96715 10.2984 8.13986 10.2364 8.33049C10.1743 8.52113 10.1596 8.72399 10.1933 8.9216L10.7073 11.9168C10.7174 11.9738 10.7112 12.0325 10.6895 12.0862C10.6679 12.1399 10.6315 12.1864 10.5847 12.2204C10.5378 12.2545 10.4824 12.2746 10.4246 12.2786C10.3669 12.2827 10.3091 12.2704 10.258 12.2432L7.56698 10.8283C7.38967 10.7352 7.19239 10.6865 6.99212 10.6865C6.79185 10.6865 6.59457 10.7352 6.41725 10.8283L3.72679 12.2432C3.6757 12.2702 3.61805 12.2824 3.56039 12.2783C3.50273 12.2742 3.44738 12.254 3.40063 12.22C3.35389 12.186 3.31762 12.1395 3.29595 12.086C3.27429 12.0324 3.2681 11.9738 3.27809 11.9168L3.79147 8.92218C3.82539 8.72448 3.8107 8.5215 3.74867 8.33074C3.68664 8.13998 3.57913 7.96718 3.43543 7.82723L1.25835 5.70784C1.21674 5.66765 1.18725 5.61659 1.17325 5.56046C1.15924 5.50433 1.16129 5.44539 1.17914 5.39037C1.197 5.33534 1.22995 5.28644 1.27424 5.24923C1.31854 5.21201 1.37239 5.18799 1.42967 5.17989L4.43947 4.73993C4.63775 4.71108 4.82605 4.63449 4.98816 4.51674C5.15027 4.39898 5.28134 4.2436 5.37009 4.06396L6.71561 1.33737Z" fill="#F59E0B" stroke="#F59E0B" stroke-width="1.16546" stroke-linecap="round" stroke-linejoin="round"/>
</svg>
