<svg width="16" height="16" viewBox="0 0 16 16" fill="none" xmlns="http://www.w3.org/2000/svg">
<path d="M1.33301 14V12.9333C1.73301 12.9 2.05245 12.7833 2.29134 12.5833C2.53023 12.3833 2.90523 12.2833 3.41634 12.2833C3.92744 12.2833 4.34411 12.4027 4.66634 12.6416C4.98857 12.8805 5.36077 13 5.78301 13C6.20524 13 6.55244 12.8805 6.82467 12.6416C7.09691 12.4027 7.48857 12.2833 7.99967 12.2833C8.51077 12.2833 8.92744 12.4027 9.24967 12.6416C9.57191 12.8805 9.94411 13 10.3663 13C10.7886 13 11.1386 12.8805 11.4163 12.6416C11.6941 12.4027 12.0886 12.2833 12.5997 12.2833C13.1108 12.2833 13.483 12.3833 13.7163 12.5833C13.9497 12.7833 14.2663 12.9 14.6663 12.9333V14C14.2774 13.9666 13.9413 13.8416 13.658 13.625C13.3747 13.4083 13.0219 13.3 12.5997 13.3C12.1774 13.3 11.8163 13.4166 11.5163 13.65C11.2163 13.8833 10.833 14 10.3663 14C9.89967 14 9.49411 13.8833 9.14967 13.65C8.80524 13.4166 8.42191 13.3 7.99967 13.3C7.57744 13.3 7.20801 13.4166 6.89134 13.65C6.57467 13.8833 6.18301 14 5.71634 14C5.24967 14 4.85524 13.8833 4.53301 13.65C4.21077 13.4166 3.83857 13.3 3.41634 13.3C2.99412 13.3 2.63856 13.4083 2.34967 13.625C2.06078 13.8416 1.7219 13.9666 1.33301 14ZM1.33301 10.8666V9.86663C1.73301 9.83329 2.05245 9.71939 2.29134 9.52496C2.53023 9.33049 2.90523 9.23329 3.41634 9.23329C3.92744 9.23329 4.33301 9.33883 4.63301 9.54996C4.93301 9.76106 5.29411 9.86663 5.71634 9.86663C6.13857 9.86663 6.49691 9.76106 6.79134 9.54996C7.08577 9.33883 7.48857 9.23329 7.99967 9.23329C8.51077 9.23329 8.91634 9.33883 9.21634 9.54996C9.51634 9.76106 9.87744 9.86663 10.2997 9.86663C10.7219 9.86663 11.083 9.76106 11.383 9.54996C11.683 9.33883 12.0886 9.23329 12.5997 9.23329C13.1108 9.23329 13.483 9.33049 13.7163 9.52496C13.9497 9.71939 14.2663 9.83329 14.6663 9.86663V10.8666C14.2774 10.8333 13.9413 10.7083 13.658 10.4916C13.3747 10.275 13.0219 10.1666 12.5997 10.1666C12.1774 10.1666 11.8163 10.2833 11.5163 10.5166C11.2163 10.75 10.833 10.8666 10.3663 10.8666C9.89967 10.8666 9.49411 10.75 9.14967 10.5166C8.80524 10.2833 8.42191 10.1666 7.99967 10.1666C7.57744 10.1666 7.21911 10.2833 6.92467 10.5166C6.63024 10.75 6.24967 10.8666 5.78301 10.8666C5.31634 10.8666 4.91077 10.75 4.56634 10.5166C4.22191 10.2833 3.83857 10.1666 3.41634 10.1666C2.99412 10.1666 2.63856 10.275 2.34967 10.4916C2.06078 10.7083 1.7219 10.8333 1.33301 10.8666ZM11.133 2.04994C11.5774 2.04994 11.9524 2.20272 12.258 2.50828C12.5636 2.81383 12.7163 3.18883 12.7163 3.63329C12.7163 4.07773 12.5636 4.45273 12.258 4.75829C11.9524 5.06383 11.5774 5.21663 11.133 5.21663C10.6886 5.21663 10.3136 5.06383 10.008 4.75829C9.70244 4.45273 9.54967 4.07773 9.54967 3.63329C9.54967 3.18883 9.70244 2.81383 10.008 2.50828C10.3136 2.20272 10.6886 2.04994 11.133 2.04994ZM5.71634 7.81663C5.51634 7.81663 5.33577 7.77773 5.17467 7.69996C5.01357 7.62216 4.88857 7.52216 4.79967 7.39996L7.04967 5.14996L6.14967 4.24996L3.51634 3.29994V1.98328L6.99967 3.31661L11.2163 7.53329C11.0941 7.63329 10.9524 7.70549 10.7913 7.74996C10.6302 7.79439 10.4663 7.81663 10.2997 7.81663C9.87744 7.81663 9.51357 7.69996 9.20801 7.46663C8.90244 7.23329 8.49967 7.11663 7.99967 7.11663C7.49967 7.11663 7.09967 7.23329 6.79967 7.46663C6.49967 7.69996 6.13857 7.81663 5.71634 7.81663Z" fill="#CC9900"/>
</svg>
