<svg width="16" height="16" viewBox="0 0 16 16" fill="none" xmlns="http://www.w3.org/2000/svg">
<path d="M1.33398 13.9991V12.9324C1.73398 12.8991 2.05343 12.7824 2.29232 12.5824C2.53121 12.3824 2.90621 12.2824 3.41732 12.2824C3.92842 12.2824 4.34508 12.4019 4.66732 12.6408C4.98955 12.8796 5.36175 12.9991 5.78398 12.9991C6.20622 12.9991 6.55342 12.8796 6.82565 12.6408C7.09788 12.4019 7.48955 12.2824 8.00065 12.2824C8.51175 12.2824 8.92842 12.4019 9.25065 12.6408C9.57288 12.8796 9.94508 12.9991 10.3673 12.9991C10.7896 12.9991 11.1396 12.8796 11.4173 12.6408C11.6951 12.4019 12.0896 12.2824 12.6006 12.2824C13.1117 12.2824 13.484 12.3824 13.7173 12.5824C13.9507 12.7824 14.2673 12.8991 14.6673 12.9324V13.9991C14.2784 13.9658 13.9423 13.8408 13.659 13.6241C13.3756 13.4074 13.0229 13.2991 12.6006 13.2991C12.1784 13.2991 11.8173 13.4158 11.5173 13.6491C11.2173 13.8824 10.834 13.9991 10.3673 13.9991C9.90065 13.9991 9.49508 13.8824 9.15065 13.6491C8.80622 13.4158 8.42288 13.2991 8.00065 13.2991C7.57842 13.2991 7.20898 13.4158 6.89232 13.6491C6.57565 13.8824 6.18398 13.9991 5.71732 13.9991C5.25065 13.9991 4.85622 13.8824 4.53398 13.6491C4.21175 13.4158 3.83955 13.2991 3.41732 13.2991C2.99509 13.2991 2.63954 13.4074 2.35065 13.6241C2.06176 13.8408 1.72287 13.9658 1.33398 13.9991ZM1.33398 10.8658V9.86577C1.73398 9.83244 2.05343 9.71854 2.29232 9.5241C2.53121 9.32964 2.90621 9.23244 3.41732 9.23244C3.92842 9.23244 4.33398 9.33797 4.63398 9.5491C4.93398 9.7602 5.29508 9.86577 5.71732 9.86577C6.13955 9.86577 6.49788 9.7602 6.79232 9.5491C7.08675 9.33797 7.48955 9.23244 8.00065 9.23244C8.51175 9.23244 8.91732 9.33797 9.21732 9.5491C9.51732 9.7602 9.87842 9.86577 10.3007 9.86577C10.7229 9.86577 11.084 9.7602 11.384 9.5491C11.684 9.33797 12.0896 9.23244 12.6006 9.23244C13.1117 9.23244 13.484 9.32964 13.7173 9.5241C13.9507 9.71854 14.2673 9.83244 14.6673 9.86577V10.8658C14.2784 10.8324 13.9423 10.7074 13.659 10.4908C13.3756 10.2741 13.0229 10.1658 12.6006 10.1658C12.1784 10.1658 11.8173 10.2824 11.5173 10.5158C11.2173 10.7491 10.834 10.8658 10.3673 10.8658C9.90065 10.8658 9.49508 10.7491 9.15065 10.5158C8.80622 10.2824 8.42288 10.1658 8.00065 10.1658C7.57842 10.1658 7.22008 10.2824 6.92565 10.5158C6.63122 10.7491 6.25065 10.8658 5.78398 10.8658C5.31732 10.8658 4.91175 10.7491 4.56732 10.5158C4.22288 10.2824 3.83955 10.1658 3.41732 10.1658C2.99509 10.1658 2.63954 10.2741 2.35065 10.4908C2.06176 10.7074 1.72287 10.8324 1.33398 10.8658ZM11.134 2.04909C11.5784 2.04909 11.9534 2.20187 12.259 2.50742C12.5646 2.81298 12.7173 3.18798 12.7173 3.63244C12.7173 4.07687 12.5646 4.45187 12.259 4.75744C11.9534 5.06297 11.5784 5.21577 11.134 5.21577C10.6896 5.21577 10.3146 5.06297 10.009 4.75744C9.70342 4.45187 9.55065 4.07687 9.55065 3.63244C9.55065 3.18798 9.70342 2.81298 10.009 2.50742C10.3146 2.20187 10.6896 2.04909 11.134 2.04909ZM5.71732 7.81577C5.51732 7.81577 5.33675 7.77687 5.17565 7.69911C5.01455 7.62131 4.88955 7.5213 4.80065 7.3991L7.05065 5.1491L6.15065 4.2491L3.51732 3.29909V1.98242L7.00065 3.31576L11.2173 7.53244C11.0951 7.63244 10.9534 7.70464 10.7923 7.7491C10.6312 7.79354 10.4673 7.81577 10.3007 7.81577C9.87842 7.81577 9.51455 7.6991 9.20898 7.46577C8.90342 7.23244 8.50065 7.11577 8.00065 7.11577C7.50065 7.11577 7.10065 7.23244 6.80065 7.46577C6.50065 7.6991 6.13955 7.81577 5.71732 7.81577Z" fill="#CC9900"/>
</svg>
